<?xml version="1.0" encoding="UTF-8" standalone="no"?>
<svg
   version="1.1"
   viewBox="0 0 1014 256"
   width="1014.0pt"
   height="256.0pt"
   id="svg20"
   sodipodi:docname="logo4.svg"
   inkscape:version="1.4.2 (ebf0e940, 2025-05-08)"
   inkscape:export-filename="logo3.svg"
   inkscape:export-xdpi="96"
   inkscape:export-ydpi="96"
   xmlns:inkscape="http://www.inkscape.org/namespaces/inkscape"
   xmlns:sodipodi="http://sodipodi.sourceforge.net/DTD/sodipodi-0.dtd"
   xmlns="http://www.w3.org/2000/svg"
   xmlns:svg="http://www.w3.org/2000/svg">
  <defs
     id="defs20" />
  <sodipodi:namedview
     id="namedview20"
     pagecolor="#ffffff"
     bordercolor="#000000"
     borderopacity="0.25"
     inkscape:showpageshadow="2"
     inkscape:pageopacity="0.0"
     inkscape:pagecheckerboard="0"
     inkscape:deskcolor="#d1d1d1"
     inkscape:document-units="pt"
     inkscape:zoom="0.40046378"
     inkscape:cx="647.99868"
     inkscape:cy="104.8784"
     inkscape:window-width="1400"
     inkscape:window-height="841"
     inkscape:window-x="0"
     inkscape:window-y="31"
     inkscape:window-maximized="0"
     inkscape:current-layer="svg20"
     inkscape:export-bgcolor="#ffffff4d" />
  <path
     d="M 0.00 0.00 L 1014.00 0.00 L 1014.00 256.00 L 0.00 256.00 L 0.00 0.00 Z"
     fill="#000000"
     id="path1"
     style="fill:none" />
  <path
     d="M 426.89 24.10 C 440.20 24.06 453.52 24.07 466.84 24.10 C 466.82 26.89 466.82 29.69 466.84 32.48 C 453.52 32.46 440.20 32.50 426.88 32.48 C 426.88 29.68 426.88 26.89 426.89 24.10 Z"
     fill="#fefefe"
     id="path2" />
  <path
     d="M 486.38 24.18 C 489.25 23.99 492.15 24.12 495.03 24.15 C 495.18 40.03 495.07 55.93 495.10 71.82 C 492.17 71.79 489.25 71.80 486.33 71.82 C 486.39 55.96 486.23 40.03 486.38 24.18 Z"
     fill="#fefefe"
     id="path3" />
  <path
     d="M 515.09 24.11 C 518.03 24.12 520.98 24.11 523.93 24.11 C 523.92 40.01 523.90 55.92 523.94 71.82 C 521.00 71.82 518.06 71.82 515.12 71.81 C 515.10 65.25 515.06 58.70 515.13 52.14 C 510.00 52.15 504.87 52.13 499.74 52.12 C 499.77 49.49 499.79 46.86 499.79 44.22 C 504.90 44.27 510.02 44.24 515.14 44.28 C 515.09 37.56 515.14 30.83 515.09 24.11 Z"
     fill="#fefefe"
     id="path4" />
  <path
     d="M 545.07 24.12 C 556.47 24.04 567.86 24.11 579.26 24.10 C 579.26 26.90 579.25 29.70 579.26 32.50 C 567.87 32.47 556.48 32.49 545.09 32.49 C 545.11 29.70 545.09 26.91 545.07 24.12 Z"
     fill="#fefefe"
     id="path5" />
  <path
     d="M 442.89 37.43 C 445.87 37.43 448.85 37.41 451.82 37.40 C 451.77 48.87 451.76 60.35 451.81 71.82 C 448.84 71.82 445.87 71.84 442.90 71.84 C 442.90 60.37 442.92 48.90 442.89 37.43 Z"
     fill="#fefefe"
     id="path6" />
  <path
     d="M 545.19 44.47 C 555.08 44.24 565.02 44.50 574.92 44.40 C 574.92 47.31 574.93 50.23 574.92 53.15 C 567.84 53.07 560.77 53.16 553.69 53.10 C 553.71 56.24 553.70 59.39 553.67 62.53 C 562.20 62.47 570.74 62.53 579.28 62.50 C 579.26 65.60 579.26 68.71 579.28 71.82 C 567.89 71.75 556.50 71.80 545.11 71.79 C 545.20 62.69 544.98 53.57 545.19 44.47 Z"
     fill="#fefefe"
     id="path7" />
  <path
     d="M 208.43 86.28 C 224.57 126.17 240.77 166.03 256.03 206.27 C 250.77 206.22 245.50 206.27 240.23 206.25 C 233.23 188.35 226.26 170.46 219.36 152.51 C 215.62 142.93 211.86 133.37 208.45 123.67 C 197.51 151.23 186.77 178.92 175.45 206.33 C 170.15 206.19 164.82 206.23 159.52 206.27 C 175.74 166.25 191.71 126.09 208.43 86.28 Z"
     fill="#fefefe"
     id="path8" />
  <path
     d="M 68.97 93.37 C 77.63 93.10 86.40 94.96 94.17 98.81 C 102.97 103.03 109.93 109.62 115.67 117.43 C 112.64 121.01 109.23 124.20 105.81 127.41 C 100.84 120.74 94.89 115.06 87.24 111.59 C 73.48 104.97 56.46 108.20 45.13 118.12 C 29.37 131.41 26.08 156.38 37.57 173.43 C 45.87 185.92 60.99 193.42 75.99 191.16 C 88.46 189.43 99.47 181.61 105.79 170.82 C 108.21 166.49 109.78 161.89 111.05 157.12 C 99.57 156.99 88.09 157.08 76.60 157.06 C 76.61 152.51 76.62 147.96 76.58 143.40 C 93.10 143.41 109.61 143.35 126.13 143.41 C 125.84 146.62 125.88 149.83 125.76 153.04 C 124.63 165.83 119.58 178.37 110.76 187.78 C 103.13 196.46 92.40 202.51 81.01 204.48 C 70.23 206.31 59.10 205.49 49.02 201.08 C 39.38 197.25 32.11 190.19 26.07 181.95 C 17.45 169.66 14.67 154.18 17.31 139.50 C 19.38 128.36 25.01 118.02 33.11 110.12 C 42.45 100.43 55.59 94.45 68.97 93.37 Z"
     fill="#fefefe"
     id="path9" />
  <path
     d="M 768.65 95.72 C 769.40 96.53 770.15 97.34 770.89 98.16 C 794.67 124.12 818.19 150.47 842.02 176.37 C 842.14 150.89 842.04 125.41 842.07 99.93 C 846.85 99.95 851.62 99.94 856.39 99.94 C 856.26 137.98 856.38 176.03 856.24 214.07 C 845.36 202.49 834.85 190.60 824.21 178.81 C 805.59 158.41 787.32 137.61 768.58 117.32 C 768.70 110.12 768.57 102.92 768.65 95.72 Z"
     fill="#fefefe"
     id="path10" />
  <path
     d="M 957.73 101.27 C 966.47 104.85 973.15 111.01 979.20 118.09 C 976.06 121.48 972.83 124.79 969.55 128.04 C 964.82 122.21 958.61 117.12 951.55 114.41 C 935.63 107.78 915.41 114.75 906.05 129.03 C 895.50 144.18 897.01 166.90 909.49 180.51 C 917.06 188.38 928.04 193.15 939.00 192.95 C 951.13 192.90 963.27 192.98 975.40 192.93 C 975.41 182.08 975.30 171.24 975.50 160.40 C 968.43 160.25 961.36 160.42 954.30 160.31 C 954.38 155.82 954.37 151.33 954.32 146.84 C 965.49 146.84 976.67 146.84 987.84 146.83 C 987.77 166.65 987.74 186.47 987.86 206.28 C 969.90 206.20 951.93 206.29 933.97 206.25 C 915.66 205.68 898.92 194.48 890.84 178.15 C 885.56 167.98 883.70 156.31 885.07 144.97 C 886.81 131.01 894.22 117.97 905.25 109.25 C 919.75 97.88 940.56 93.67 957.73 101.27 Z"
     fill="#fefefe"
     id="path11" />
  <path
     d="M 265.45 99.96 C 292.78 99.91 320.11 99.97 347.44 99.94 C 347.40 104.65 347.40 109.35 347.43 114.06 C 320.12 114.10 292.80 114.03 265.48 114.11 C 265.48 109.39 265.48 104.68 265.45 99.96 Z"
     fill="#fefefe"
     id="path12" />
  <path
     d="M 381.15 99.94 C 386.01 99.96 390.87 99.95 395.73 99.92 C 395.71 135.37 395.61 170.82 395.77 206.26 C 390.89 206.25 386.01 206.22 381.12 206.28 C 381.16 170.83 381.10 135.38 381.15 99.94 Z"
     fill="#fefefe"
     id="path13" />
  <path
     d="M 448.66 99.95 C 453.56 99.95 458.46 99.95 463.35 99.94 C 463.38 135.39 463.34 170.83 463.36 206.28 C 458.44 206.23 453.52 206.28 448.60 206.26 C 448.75 196.18 448.62 186.09 448.67 176.00 C 448.72 170.91 448.45 165.91 449.06 160.84 C 436.09 160.98 423.11 160.88 410.13 160.90 C 410.13 156.20 410.14 151.49 410.13 146.79 C 422.98 146.88 435.83 146.78 448.69 146.84 C 448.63 131.21 448.69 115.58 448.66 99.95 Z"
     fill="#fefefe"
     id="path14" />
  <path
     d="M 505.84 99.92 C 528.34 99.98 550.84 99.93 573.34 99.94 C 573.30 104.65 573.26 109.37 573.32 114.09 C 550.82 114.07 528.32 114.06 505.83 114.09 C 505.87 109.37 505.87 104.64 505.84 99.92 Z"
     fill="#fefefe"
     id="path15" />
  <path
     d="M 610.84 99.92 C 624.23 99.98 637.61 99.93 651.00 99.94 C 661.54 99.66 672.29 105.10 678.14 113.90 C 682.77 120.43 683.94 129.10 682.41 136.83 C 681.30 142.87 677.80 148.18 673.38 152.35 C 666.95 157.97 658.87 159.80 650.48 159.58 C 663.71 174.90 676.56 190.69 689.42 206.33 C 683.57 206.23 677.72 206.23 671.87 206.29 C 655.33 186.55 638.65 166.89 622.50 146.83 C 631.33 146.89 640.17 146.81 649.00 146.86 C 653.95 147.03 659.53 145.66 663.33 142.35 C 668.45 138.21 670.42 130.28 667.75 124.26 C 665.33 117.72 657.80 113.56 651.00 114.04 C 637.62 114.14 624.24 114.02 610.85 114.11 C 610.89 109.38 610.87 104.65 610.84 99.92 Z"
     fill="#fefefe"
     id="path16" />
  <path
     d="M 721.09 99.94 C 725.86 99.95 730.62 99.93 735.39 99.95 C 735.37 135.39 735.37 170.84 735.37 206.28 C 730.60 206.23 725.84 206.28 721.08 206.29 C 721.07 170.84 721.05 135.39 721.09 99.94 Z"
     fill="#fefefe"
     id="path17" />
  <path
     d="M 300.76 122.80 C 305.58 122.87 310.40 122.86 315.23 122.84 C 315.20 150.65 315.20 178.45 315.22 206.26 C 310.40 206.22 305.57 206.25 300.74 206.28 C 300.83 178.46 300.80 150.63 300.76 122.80 Z"
     fill="#fefefe"
     id="path18" />
  <path
     d="M 768.57 132.52 C 769.34 133.40 770.11 134.28 770.89 135.16 C 774.98 139.70 779.05 144.28 782.96 148.98 C 782.79 168.08 782.91 187.18 782.90 206.28 C 778.09 206.23 773.28 206.27 768.47 206.27 C 768.60 181.69 768.47 157.11 768.57 132.52 Z"
     fill="#fefefe"
     id="path19" />
  <path
     d="M 505.82 146.81 C 524.49 146.87 543.17 146.83 561.84 146.81 C 561.81 151.33 561.78 155.85 561.82 160.37 C 547.94 160.32 534.06 160.38 520.19 160.35 C 520.27 171.20 520.23 182.06 520.17 192.90 C 538.06 192.97 555.95 192.95 573.85 192.92 C 573.85 197.33 573.85 201.75 573.88 206.16 C 551.20 206.13 528.52 206.14 505.84 206.18 C 505.85 186.39 505.87 166.60 505.82 146.81 Z"
     fill="#fefefe"
     id="path20"
     inkscape:label="path20" />
</svg>
