<svg xmlns="http://www.w3.org/2000/svg" xmlns:xlink="http://www.w3.org/1999/xlink" width="462" height="462" viewBox="0 0 462 462">
  <defs>
    <clipPath id="clip-path">
      <path id="Union_1" data-name="Union 1" d="M439,481V467h14v14Zm-28,0V467h14v14Zm-42,0V467h14v14Zm-28,0V467h14v14Zm-14,0V467h14v14Zm-14,0V467h14v14Zm-42,0V467h14v14Zm-70,0V467h14v14Zm-28,0V467h14v14Zm-14,0V467h14v14Zm-14,0V467h14v14Zm-14,0V467h14v14ZM19,481V383h98v98Zm14-14h70V397H33Zm434,0V453h14v14Zm-42,0V453h14v14Zm-56,0V453h14v14Zm-56,0V453h14v14Zm-14,0V453h14v14Zm-56,0V453h14v14Zm-14,0V453h14v14Zm-14,0V453h14v14Zm-14,0V453h14v14Zm-28,0V453h14v14Zm-14,0V453h14v14Zm-14,0V453h14v14Zm294-14V439h14v14Zm-56,0V439h14v14Zm-56,0V439h14v14Zm-14,0V439h14v14Zm-42,0V439h14v14Zm-70,0V439h14v14Zm-42,0V439h14v14Zm-28,0V439h14v14Zm-84,0V411H89v42Zm420-14V425h14v14Zm-42,0V425h14v14Zm-14,0V425h14v14Zm-28,0V425h14v14Zm-14,0V425h14v14Zm-14,0V425h14v14Zm-14,0V425h14v14Zm-14,0V425h14v14Zm-14,0V425h14v14Zm-56,0V425h14v14Zm-70,0V425h14v14Zm-14,0V425h14v14Zm-42,0V425h14v14Zm336-14V411h14v14Zm-28,0V411h14v14Zm-14,0V411h14v14Zm-14,0V411h14v14Zm-14,0V411h14v14Zm-14,0V411h14v14Zm-14,0V411h14v14Zm-14,0V411h14v14Zm-112,0V411h14v14Zm-14,0V411h14v14Zm-14,0V411h14v14Zm-14,0V411h14v14Zm-28,0V411h14v14Zm-14,0V411h14v14Zm252-14V397h14v14Zm-56,0V397h14v14Zm-28,0V397h14v14Zm-42,0V397h14v14Zm-28,0V397h14v14Zm-42,0V397h14v14Zm-28,0V397h14v14Zm-28,0V397h14v14Zm-14,0V397h14v14Zm-14,0V397h14v14Zm336-14V383h14v14Zm-42,0V383h14v14Zm-14,0V383h14v14Zm-28,0V383h14v14Zm-28,0V383h14v14Zm-14,0V383h14v14Zm-14,0V383h14v14Zm-14,0V383h14v14Zm-28,0V383h14v14Zm-42,0V383h14v14Zm-14,0V383h14v14Zm-14,0V383h14v14Zm-14,0V383h14v14Zm-14,0V383h14v14Zm-28,0V383h14v14Zm-14,0V383h14v14Zm-14,0V383h14v14Zm336-14V369h14v14Zm-28,0V369h14v14Zm-28,0V369h14v14Zm-56,0V369h14v14Zm-70,0V369h14v14Zm-14,0V369h14v14Zm-14,0V369h14v14Zm-42,0V369h14v14Zm-56,0V369h14v14Zm-14,0V369h14v14Zm-14,0V369h14v14Zm336-14V355h14v14Zm-14,0V355h14v14Zm-14,0V355h14v14Zm-14,0V355h14v14Zm-14,0V355h14v14Zm-14,0V355h14v14Zm-14,0V355h14v14Zm-14,0V355h14v14Zm-14,0V355h14v14Zm-28,0V355h14v14Zm-42,0V355h14v14Zm-28,0V355h14v14Zm-14,0V355h14v14Zm-70,0V355h14v14Zm-14,0V355h14v14Zm-14,0V355h14v14Zm-28,0V355h14v14Zm-14,0V355h14v14Zm-28,0V355H89v14Zm-14,0V355H75v14Zm-42,0V355H33v14Zm448-14V341h14v14Zm-28,0V341h14v14Zm-70,0V341h14v14Zm-14,0V341h14v14Zm-56,0V341h14v14Zm-14,0V341h14v14Zm-28,0V341h14v14Zm-14,0V341h14v14Zm-14,0V341h14v14Zm-14,0V341h14v14Zm-28,0V341h14v14Zm-14,0V341h14v14Zm-42,0V341h14v14Zm-56,0V341H89v14Zm-14,0V341H75v14Zm-14,0V341H61v14Zm-14,0V341H47v14Zm-14,0V341H33v14Zm434-14V327h14v14Zm-28,0V327h14v14Zm-42,0V327h14v14Zm-42,0V327h14v14Zm-28,0V327h14v14Zm-14,0V327h14v14Zm-28,0V327h14v14Zm-28,0V327h14v14Zm-14,0V327h14v14Zm-42,0V327h14v14Zm-14,0V327h14v14Zm-14,0V327h14v14Zm-42,0V327h14v14Zm-14,0V327h14v14Zm-14,0V327h14v14Zm-14,0V327H89v14Zm-28,0V327H61v14Zm-28,0V327H33v14Zm448-14V313h14v14Zm-14,0V313h14v14Zm-14,0V313h14v14Zm-14,0V313h14v14Zm-14,0V313h14v14Zm-14,0V313h14v14Zm-28,0V313h14v14Zm-14,0V313h14v14Zm-14,0V313h14v14Zm-42,0V313h14v14Zm-14,0V313h14v14Zm-42,0V313h14v14Zm-14,0V313h14v14Zm-14,0V313h14v14Zm-14,0V313h14v14Zm-14,0V313h14v14Zm-14,0V313h14v14Zm-14,0V313h14v14Zm-14,0V313h14v14Zm-14,0V313h14v14Zm-14,0V313h14v14Zm-42,0V313H89v14Zm-42,0V313H47v14Zm420-14V299h14v14Zm-28,0V299h14v14Zm-14,0V299h14v14Zm-14,0V299h14v14Zm-14,0V299h14v14Zm-14,0V299h14v14Zm-42,0V299h14v14Zm-14,0V299h14v14Zm-56,0V299h14v14Zm-14,0V299h14v14Zm-28,0V299h14v14Zm-84,0V299h14v14Zm-14,0V299h14v14Zm-14,0V299h14v14Zm-14,0V299h14v14Zm-56,0V299H47v14Zm-14,0V299H33v14Zm434-14V285h14v14Zm-28,0V285h14v14Zm-14,0V285h14v14Zm-14,0V285h14v14Zm-28,0V285h14v14Zm-14,0V285h14v14Zm-42,0V285h14v14Zm-28,0V285h14v14Zm-42,0V285h14v14Zm-14,0V285h14v14Zm-42,0V285h14v14Zm-28,0V285h14v14Zm-28,0V285h14v14Zm-14,0V285h14v14Zm-42,0V285H89v14Zm-14,0V285H75v14Zm-42,0V285H33v14Zm448-14V271h14v14Zm-14,0V271h14v14Zm-14,0V271h14v14Zm-14,0V271h14v14Zm-14,0V271h14v14Zm-42,0V271h14v14Zm-14,0V271h14v14Zm-28,0V271h14v14Zm-14,0V271h14v14Zm-168,0V271h14v14Zm-14,0V271h14v14Zm-14,0V271h14v14Zm-14,0V271h14v14Zm322-14V257h14v14Zm-14,0V257h14v14Zm-56,0V257h14v14Zm-56,0V257h14v14Zm-14,0V257h14v14Zm-56,0V257h14v14Zm-14,0V257h14v14Zm-14,0V257h14v14Zm-28,0V257h14v14Zm-14,0V257h14v14Zm-42,0V257h14v14Zm-28,0V257h14v14Zm-28,0V257H75v14Zm-14,0V257H61v14Zm-14,0V257H47v14Zm420-14V243h14v14Zm-14,0V243h14v14Zm-14,0V243h14v14Zm-70,0V243h14v14Zm-14,0V243h14v14Zm-14,0V243h14v14Zm-28,0V243h14v14Zm-14,0V243h14v14Zm-14,0V243h14v14Zm-14,0V243h14v14Zm-14,0V243h14v14Zm-28,0V243h14v14Zm-42,0V243h14v14Zm-28,0V243h14v14Zm-28,0V243h14v14Zm-14,0V243h14v14Zm-28,0V243H89v14Zm-14,0V243H75v14Zm-14,0V243H61v14Zm392-14V229h14v14Zm-14,0V229h14v14Zm-28,0V229h14v14Zm-14,0V229h14v14Zm-14,0V229h14v14Zm-14,0V229h14v14Zm-14,0V229h14v14Zm-42,0V229h14v14Zm-14,0V229h14v14Zm-42,0V229h14v14Zm-56,0V229h14v14Zm-28,0V229h14v14Zm-14,0V229h14v14Zm-14,0V229h14v14Zm-14,0V229h14v14Zm-28,0V229h14v14Zm-28,0V229H75v14Zm378-14V215h14v14Zm-14,0V215h14v14Zm-28,0V215h14v14Zm-42,0V215h14v14Zm-56,0V215h14v14Zm-98,0V215h14v14Zm-28,0V215h14v14Zm-14,0V215h14v14Zm-42,0V215h14v14Zm-14,0V215h14v14Zm-28,0V215H89v14Zm-28,0V215H61v14Zm-14,0V215H47v14Zm434-14V201h14v14Zm-28,0V201h14v14Zm-28,0V201h14v14Zm-42,0V201h14v14Zm-28,0V201h14v14Zm-28,0V201h14v14Zm-14,0V201h14v14Zm-28,0V201h14v14Zm-14,0V201h14v14Zm-70,0V201h14v14Zm-14,0V201h14v14Zm-14,0V201h14v14Zm-14,0V201h14v14Zm-14,0V201h14v14Zm-84,0V201H61v14Zm392-14V187h14v14Zm-42,0V187h14v14Zm-42,0V187h14v14Zm-56,0V187h14v14Zm-42,0V187h14v14Zm-14,0V187h14v14Zm-84,0V187h14v14Zm-28,0V187h14v14Zm-14,0V187h14v14Zm-14,0V187h14v14Zm-14,0V187h14v14Zm-42,0V187H61v14Zm-14,0V187H47v14Zm420-14V173h14v14Zm-28,0V173h14v14Zm-56,0V173h14v14Zm-28,0V173h14v14Zm-14,0V173h14v14Zm-70,0V173h14v14Zm-28,0V173h14v14Zm-14,0V173h14v14Zm-14,0V173h14v14Zm-70,0V173h14v14Zm-42,0V173h14v14Zm-28,0V173H75v14Zm-14,0V173H61v14Zm392-14V159h14v14Zm-56,0V159h14v14Zm-28,0V159h14v14Zm-14,0V159h14v14Zm-28,0V159h14v14Zm-14,0V159h14v14Zm-14,0V159h14v14Zm-42,0V159h14v14Zm-28,0V159h14v14Zm-14,0V159h14v14Zm-14,0V159h14v14Zm-14,0V159h14v14Zm-42,0V159h14v14Zm-28,0V159h14v14Zm-14,0V159h14v14Zm-14,0V159H89v14Zm-56,0V159H33v14Zm322-14V145h14v14Zm-28,0V145h14v14Zm-14,0V145h14v14Zm-14,0V145h14v14Zm-42,0V145h14v14Zm-56,0V145h14v14Zm-14,0V145h14v14Zm-14,0V145h14v14Zm-42,0V145h14v14Zm-70,0V145H61v14Zm-14,0V145H47v14Zm-14,0V145H33v14Zm434-14V131h14v14Zm-28,0V131h14v14Zm-28,0V131h14v14Zm-14,0V131h14v14Zm-14,0V131h14v14Zm-14,0V131h14v14Zm-14,0V131h14v14Zm-14,0V131h14v14Zm-14,0V131h14v14Zm-14,0V131h14v14Zm-56,0V131h14v14Zm-28,0V131h14v14Zm-28,0V131h14v14Zm-28,0V131h14v14Zm-28,0V131h14v14Zm-14,0V131h14v14Zm-14,0V131h14v14Zm-14,0V131h14v14Zm-28,0V131H75v14Zm-14,0V131H61v14Zm-28,0V131H33v14Zm322-14V117h14v14Zm-42,0V117h14v14Zm-14,0V117h14v14Zm-28,0V117h14v14Zm-28,0V117h14v14Zm-14,0V117h14v14Zm-70,0V117h14v14Zm-14,0V117h14v14Zm252-14V19h98v98Zm14-14h70V33H397Zm-42,14V103h14v14Zm-28,0V103h14v14Zm-28,0V103h14v14Zm-28,0V103h14v14Zm-28,0V103h14v14Zm-28,0V103h14v14Zm-28,0V103h14v14Zm-28,0V103h14v14Zm-28,0V103h14v14ZM19,117V19h98v98Zm14-14h70V33H33Zm322,0V89h14v14Zm-42,0V89h14v14Zm-28,0V89h14v14Zm-14,0V89h14v14Zm-42,0V89h14v14Zm-28,0V89h14v14Zm-14,0V89h14v14Zm-14,0V89h14v14Zm-14,0V89h14v14Zm-28,0V89h14v14ZM411,89V47h42V89Zm-56,0V75h14V89Zm-28,0V75h14V89Zm-28,0V75h14V89Zm-14,0V75h14V89Zm-14,0V75h14V89Zm-28,0V75h14V89Zm-28,0V75h14V89Zm-14,0V75h14V89Zm-14,0V75h14V89Zm-14,0V75h14V89ZM47,89V47H89V89ZM313,75V61h14V75Zm-14,0V61h14V75ZM187,75V61h14V75Zm-14,0V61h14V75Zm-42,0V61h14V75ZM341,61V47h14V61Zm-14,0V47h14V61Zm-14,0V47h14V61Zm-28,0V47h14V61Zm-14,0V47h14V61Zm-14,0V47h14V61Zm-28,0V47h14V61Zm-28,0V47h14V61Zm-14,0V47h14V61Zm-14,0V47h14V61Zm-14,0V47h14V61ZM341,47V33h14V47Zm-14,0V33h14V47Zm-14,0V33h14V47Zm-14,0V33h14V47Zm-14,0V33h14V47Zm-84,0V33h14V47Zm-14,0V33h14V47Zm-28,0V33h14V47Zm-14,0V33h14V47Zm-14,0V33h14V47ZM355,33V19h14V33Zm-28,0V19h14V33Zm-42,0V19h14V33Zm-28,0V19h14V33Zm-14,0V19h14V33Zm-42,0V19h14V33Zm-28,0V19h14V33Zm-28,0V19h14V33Z" fill="#fff"/>
    </clipPath>
  </defs>
  <g id="adobe-express-qr-code" transform="translate(-19 -19)">
    <g id="Group_1" data-name="Group 1" clip-path="url(#clip-path)">
      <rect id="Rectangle_2" data-name="Rectangle 2" width="500" height="500" fill="#fff"/>
    </g>
  </g>
</svg>
